# Blender 5.1.1
# www.blender.org
mtllib chicken.mtl
o Cube
v 0.671083 3.234654 -15.551770
v 0.671083 4.765346 -15.551770
v -0.859609 3.234654 -15.551769
v -0.859609 4.765346 -15.551769
v 0.671083 3.234654 -17.082462
v 0.671083 4.765346 -17.082462
v -0.859609 3.234654 -17.082462
v -0.859609 4.765346 -17.082462
v 0.671083 6.502596 -15.551770
v -0.859609 6.502596 -15.551769
v -0.859609 6.502596 -17.082462
v 0.671083 6.502596 -17.082462
v -1.967032 4.765346 -15.551769
v -1.967032 3.234654 -15.551769
v -1.967032 3.234654 -17.082462
v -1.967032 4.765346 -17.082462
v -0.859609 3.234654 -16.804495
v -0.859609 3.234654 -15.829736
v -0.859609 4.765346 -15.829736
v -0.859609 4.765346 -16.804495
v 0.671083 3.234654 -15.829736
v 0.671083 3.234654 -16.804495
v 0.671083 4.765346 -16.804495
v 0.671083 4.765346 -15.829736
v -0.859609 6.502596 -15.829736
v -0.859609 6.502596 -16.804495
v 0.671083 6.502596 -16.804495
v 0.671083 6.502596 -15.829736
v -1.967032 3.234654 -16.804495
v -1.967032 3.234654 -15.829736
v -1.967032 4.765346 -15.829736
v -1.967032 4.765346 -16.804495
v -2.247767 3.234654 -16.804495
v -2.247767 3.234654 -15.829736
v -2.247767 4.765346 -15.829736
v -2.247767 4.765346 -16.804495
v 0.671083 5.865926 -15.551770
v 0.671083 6.068977 -15.551770
v -0.859609 6.068977 -15.551769
v -0.859609 5.865926 -15.551769
v 0.671083 5.865926 -17.082462
v 0.671083 6.068977 -17.082462
v -0.859609 6.068977 -17.082462
v -0.859609 5.865926 -17.082462
v -0.859609 5.865926 -16.804495
v -0.859609 6.068977 -16.804495
v -0.859609 5.865926 -15.829736
v -0.859609 6.068977 -15.829736
v 0.671083 5.865926 -15.829736
v 0.671083 6.068977 -15.829736
v 0.671083 5.865926 -16.804495
v 0.671083 6.068977 -16.804495
v -0.226797 3.234654 -15.551769
v 0.038271 3.234654 -15.551769
v 0.038271 4.765346 -15.551769
v -0.226797 4.765346 -15.551769
v 0.038270 3.234654 -17.082462
v -0.226797 3.234654 -17.082462
v -0.226797 4.765346 -17.082462
v 0.038270 4.765346 -17.082462
v 0.038271 6.502596 -15.551769
v -0.226797 6.502596 -15.551769
v -0.226797 6.502596 -17.082462
v 0.038270 6.502596 -17.082462
v -0.226797 6.502596 -16.804495
v 0.038270 6.502596 -16.804495
v -0.226797 6.502596 -15.829736
v 0.038271 6.502596 -15.829736
v -0.226797 3.234654 -15.829736
v 0.038271 3.234654 -15.829736
v -0.226797 3.234654 -16.804495
v 0.038270 3.234654 -16.804495
v -0.226797 5.865926 -17.082462
v 0.038270 5.865926 -17.082462
v -0.226797 6.068977 -17.082462
v 0.038270 6.068977 -17.082462
v 0.038271 5.865926 -15.551769
v -0.226797 5.865926 -15.551769
v 0.038271 6.068977 -15.551769
v -0.226797 6.068977 -15.551769
v -0.351857 1.807652 -15.647899
v -0.351857 2.024603 -15.647899
v -0.912244 1.807652 -15.647899
v -0.912244 2.024603 -15.647899
v -0.351858 1.807652 -16.208286
v -0.351858 2.024603 -16.208286
v -0.912244 1.807652 -16.208286
v -0.912244 2.024603 -16.208286
v -0.912244 1.807652 -16.021490
v -0.912244 1.807652 -15.834694
v -0.912244 2.024603 -15.834694
v -0.912244 2.024603 -16.021490
v -0.351858 1.807652 -15.834694
v -0.351858 1.807652 -16.021490
v -0.351858 2.024603 -16.021490
v -0.351858 2.024603 -15.834694
v -0.071664 1.807652 -15.647899
v -0.071664 2.024603 -15.647899
v -0.071664 2.024603 -15.834694
v -0.071664 1.807652 -15.834694
v -0.071664 2.024603 -16.208286
v -0.071664 1.807652 -16.208286
v -0.071664 1.807652 -16.021490
v -0.071664 2.024603 -16.021490
v -0.725449 1.807652 -15.647899
v -0.538653 1.807652 -15.647899
v -0.538653 2.024603 -15.647899
v -0.725449 2.024603 -15.647899
v -0.538653 1.807652 -16.208286
v -0.725449 1.807652 -16.208286
v -0.725449 2.024603 -16.208286
v -0.538653 2.024603 -16.208286
v -0.725449 2.024603 -16.021490
v -0.538653 2.024603 -16.021490
v -0.725449 2.024603 -15.834694
v -0.538653 2.024603 -15.834694
v -0.725449 1.807652 -15.834694
v -0.538653 1.807652 -15.834694
v -0.725449 1.807652 -16.021490
v -0.538653 1.807652 -16.021490
v -0.725449 3.209517 -16.021490
v -0.538653 3.209517 -16.021490
v -0.725449 3.209517 -15.834694
v -0.538653 3.209517 -15.834694
v -0.351858 1.807652 -16.986332
v -0.351858 2.024603 -16.986332
v -0.912244 1.807652 -16.986332
v -0.912244 2.024603 -16.986332
v -0.351858 1.807652 -16.425945
v -0.351858 2.024603 -16.425945
v -0.912244 1.807652 -16.425945
v -0.912244 2.024603 -16.425945
v -0.912244 1.807652 -16.612741
v -0.912244 1.807652 -16.799538
v -0.912244 2.024603 -16.799538
v -0.912244 2.024603 -16.612741
v -0.351858 1.807652 -16.799538
v -0.351858 1.807652 -16.612741
v -0.351858 2.024603 -16.612741
v -0.351858 2.024603 -16.799538
v -0.071664 1.807652 -16.986332
v -0.071664 2.024603 -16.986332
v -0.071664 2.024603 -16.799538
v -0.071664 1.807652 -16.799538
v -0.071664 2.024603 -16.425945
v -0.071664 1.807652 -16.425945
v -0.071664 1.807652 -16.612741
v -0.071664 2.024603 -16.612741
v -0.725449 1.807652 -16.986332
v -0.538653 1.807652 -16.986332
v -0.538653 2.024603 -16.986332
v -0.725449 2.024603 -16.986332
v -0.538653 1.807652 -16.425945
v -0.725449 1.807652 -16.425945
v -0.725449 2.024603 -16.425945
v -0.538653 2.024603 -16.425945
v -0.725449 2.024603 -16.612741
v -0.538653 2.024603 -16.612741
v -0.725449 2.024603 -16.799538
v -0.538653 2.024603 -16.799538
v -0.725449 1.807652 -16.799538
v -0.538653 1.807652 -16.799538
v -0.725449 1.807652 -16.612741
v -0.538653 1.807652 -16.612741
v -0.725449 3.209517 -16.612741
v -0.538653 3.209517 -16.612741
v -0.725449 3.209517 -16.799538
v -0.538653 3.209517 -16.799538
v 1.324015 5.378709 -16.072540
v 1.324015 5.867861 -16.072540
v 0.664125 5.378709 -16.072540
v 0.664125 5.867861 -16.072540
v 1.324015 5.378709 -16.561691
v 1.324015 5.867861 -16.561691
v 0.664125 5.378709 -16.561691
v 0.664125 5.867861 -16.561691
v 0.994070 5.378709 -16.072540
v 0.994070 5.867861 -16.072540
v 0.994070 5.378709 -16.561691
v 0.994070 5.867861 -16.561691
v -0.226797 5.865926 -17.082462
v 0.038270 5.865926 -17.082462
v -0.226797 6.068977 -17.082462
v 0.038270 6.068977 -17.082462
v 0.038271 5.865926 -15.551769
v -0.226797 5.865926 -15.551769
v 0.038271 6.068977 -15.551769
v -0.226797 6.068977 -15.551769
v 0.664125 5.378708 -16.072540
v 0.664125 5.378708 -16.561691
v 0.994070 5.378708 -16.072540
v 0.994070 5.378708 -16.561691
v 0.664125 4.878709 -16.561691
v 0.664125 4.878709 -16.072540
v 0.994070 4.878709 -16.561691
v 0.994070 4.878709 -16.072540
v -0.463700 6.871919 -16.072540
v -0.463700 6.871919 -16.561691
v 0.343502 6.871919 -16.072540
v 0.343502 6.871919 -16.561691
v -0.463700 6.461258 -16.561691
v -0.463700 6.461258 -16.072540
v 0.343502 6.461258 -16.561691
v 0.343502 6.461258 -16.072540
v -1.370119 4.712702 -15.066442
v -1.370119 4.712702 -15.571443
v 0.417379 4.712702 -15.066442
v 0.417379 4.712702 -15.571443
v -1.370119 3.957624 -15.571443
v -1.370119 3.957624 -15.066442
v 0.417379 3.957624 -15.571443
v 0.417379 3.957624 -15.066442
v -1.370119 4.712702 -17.076023
v -1.370119 4.712702 -17.581024
v 0.417379 4.712702 -17.076023
v 0.417379 4.712702 -17.581024
v -1.370119 3.957624 -17.581024
v -1.370119 3.957624 -17.076023
v 0.417379 3.957624 -17.581024
v 0.417379 3.957624 -17.076023
vn -0.0000 -0.0000 1.0000
vn -0.0000 -0.0000 -1.0000
vn 1.0000 -0.0000 -0.0000
vn -0.0000 -1.0000 -0.0000
vn -0.0000 1.0000 -0.0000
vn -1.0000 -0.0000 -0.0000
vt 0.375000 0.166667
vt 0.625000 0.166667
vt 0.625000 0.250000
vt 0.375000 0.250000
vt 0.625000 0.500000
vt 0.375000 0.500000
vt 0.375000 0.666667
vt 0.625000 0.666667
vt 0.625000 0.750000
vt 0.375000 0.750000
vt 0.375000 0.916667
vt 0.625000 0.916667
vt 0.625000 1.000000
vt 0.375000 1.000000
vt 0.291667 0.666667
vt 0.291667 0.750000
vt 0.625000 0.083333
vt 0.625000 0.000000
vt 0.625000 0.083333
vt 0.791667 0.666667
vt 0.875000 0.666667
vt 0.875000 0.750000
vt 0.791667 0.750000
vt 0.625000 0.833333
vt 0.625000 0.333333
vt 0.625000 0.250000
vt 0.625000 0.333333
vt 0.625000 0.583333
vt 0.625000 0.500000
vt 0.625000 0.583333
vt 0.375000 0.416667
vt 0.625000 0.416667
vt 0.208333 0.500000
vt 0.125000 0.500000
vt 0.291667 0.500000
vt 0.375000 0.333333
vt 0.625000 0.416667
vt 0.708333 0.666667
vt 0.708333 0.750000
vt 0.125000 0.666667
vt 0.208333 0.666667
vt 0.208333 0.750000
vt 0.125000 0.750000
vt 0.375000 0.833333
vt 0.625000 0.166667
vt 0.625000 0.666667
vt 0.291667 0.583333
vt 0.208333 0.583333
vt 0.125000 0.583333
vt 0.708333 0.500000
vt 0.791667 0.500000
vt 0.791667 0.583333
vt 0.708333 0.583333
vt 0.875000 0.500000
vt 0.875000 0.583333
vt 0.375000 0.583333
vt 0.375000 0.000000
vt 0.375000 0.083333
vt 0.375000 0.666667
vt 0.625000 0.666667
vt 0.291667 0.666667
vt 0.791667 0.666667
vt 0.291667 0.583333
vt 0.791667 0.583333
vt 0.625000 0.583333
vt 0.875000 0.583333
vt 0.375000 0.583333
vt 0.375000 0.125000
vt 0.625000 0.125000
vt 0.375000 0.625000
vt 0.625000 0.625000
vt 0.125000 0.625000
vt 0.875000 0.625000
s 0
usemtl 
f 53/1/1 56/2/1 4/3/1 3/4/1
f 8/5/2 7/6/2 15/6/2 16/5/2
f 57/7/2 60/8/2 6/9/2 5/10/2
f 21/11/3 24/12/3 2/13/3 1/14/3
f 72/15/4 57/7/4 5/10/4 22/16/4
f 79/17/1 38/18/1 9/18/1 61/19/1
f 68/20/5 61/21/5 9/22/5 28/23/5
f 52/24/3 42/9/3 12/9/3 27/24/3
f 48/25/6 39/26/6 10/3/6 25/27/6
f 75/28/2 43/29/2 11/5/2 63/30/2
f 29/31/6 32/32/6 16/5/6 15/6/6
f 18/33/4 3/34/4 14/34/4 30/33/4
f 20/32/5 8/5/5 16/5/5 32/32/5
f 3/4/1 4/3/1 13/3/1 14/4/1
f 4/3/5 19/27/5 31/27/5 13/3/5
f 19/27/5 20/32/5 32/32/5 31/27/5
f 7/6/4 17/35/4 29/35/4 15/6/4
f 17/35/4 18/33/4 30/33/4 29/35/4
f 14/4/6 13/3/6 31/27/6 30/36/6
f 30/36/1 31/27/1 35/27/1 34/36/1
f 43/29/6 46/37/6 26/32/6 11/5/6
f 46/37/6 48/25/6 25/27/6 26/32/6
f 38/13/3 50/12/3 28/12/3 9/13/3
f 50/12/3 52/24/3 27/24/3 28/12/3
f 64/8/5 66/38/5 27/39/5 12/9/5
f 66/38/5 68/20/5 28/23/5 27/39/5
f 54/40/4 70/41/4 21/42/4 1/43/4
f 70/41/4 72/15/4 22/16/4 21/42/4
f 5/10/3 6/9/3 23/24/3 22/44/3
f 22/44/3 23/24/3 24/12/3 21/11/3
f 34/36/6 35/27/6 36/32/6 33/31/6
f 32/32/2 29/31/2 33/31/2 36/32/2
f 31/27/5 32/32/5 36/32/5 35/27/5
f 29/35/4 30/33/4 34/33/4 33/35/4
f 24/12/3 23/24/3 51/24/3 49/12/3
f 49/12/3 51/24/3 52/24/3 50/12/3
f 2/13/3 24/12/3 49/12/3 37/13/3
f 37/13/3 49/12/3 50/12/3 38/13/3
f 20/32/6 19/27/6 47/25/6 45/37/6
f 45/37/6 47/25/6 48/25/6 46/37/6
f 8/5/6 20/32/6 45/37/6 44/29/6
f 44/29/6 45/37/6 46/37/6 43/29/6
f 59/30/2 8/5/2 44/29/2 73/28/2
f 73/28/2 44/29/2 43/29/2 75/28/2
f 19/27/6 4/3/6 40/26/6 47/25/6
f 47/25/6 40/26/6 39/26/6 48/25/6
f 23/24/3 6/9/3 41/9/3 51/24/3
f 51/24/3 41/9/3 42/9/3 52/24/3
f 55/19/1 2/18/1 37/18/1 77/17/1
f 77/17/1 37/18/1 38/18/1 79/17/1
f 40/26/1 78/45/1 80/45/1 39/26/1
f 4/3/1 56/2/1 78/45/1 40/26/1
f 56/2/1 55/19/1 77/17/1 78/45/1
f 41/9/2 74/46/2 76/46/2 42/9/2
f 6/9/2 60/8/2 74/46/2 41/9/2
f 60/8/2 59/30/2 73/28/2 74/46/2
f 18/33/4 17/35/4 71/47/4 69/48/4
f 69/48/4 71/47/4 72/15/4 70/41/4
f 3/34/4 18/33/4 69/48/4 53/49/4
f 53/49/4 69/48/4 70/41/4 54/40/4
f 26/50/5 25/51/5 67/52/5 65/53/5
f 65/53/5 67/52/5 68/20/5 66/38/5
f 11/5/5 26/50/5 65/53/5 63/30/5
f 63/30/5 65/53/5 66/38/5 64/8/5
f 42/9/2 76/46/2 64/8/2 12/9/2
f 76/46/2 75/28/2 63/30/2 64/8/2
f 25/51/5 10/54/5 62/55/5 67/52/5
f 67/52/5 62/55/5 61/21/5 68/20/5
f 39/26/1 80/45/1 62/2/1 10/3/1
f 80/45/1 79/17/1 61/19/1 62/2/1
f 17/35/4 7/6/4 58/56/4 71/47/4
f 71/47/4 58/56/4 57/7/4 72/15/4
f 7/6/2 8/5/2 59/30/2 58/56/2
f 58/56/2 59/30/2 60/8/2 57/7/2
f 1/57/1 2/18/1 55/19/1 54/58/1
f 54/58/1 55/19/1 56/2/1 53/1/1
usemtl Orange
f 105/1/1 108/2/1 84/3/1 83/4/1
f 89/31/6 92/32/6 88/5/6 87/6/6
f 109/59/2 112/60/2 86/9/2 85/10/2
f 96/23/5 82/22/5 98/22/5 99/23/5
f 120/61/4 109/59/4 85/10/4 94/16/4
f 116/62/5 107/21/5 82/22/5 96/23/5
f 112/60/5 114/38/5 95/39/5 86/9/5
f 114/38/5 116/62/5 96/23/5 95/39/5
f 106/40/4 118/41/4 93/42/4 81/43/4
f 118/41/4 120/61/4 94/16/4 93/42/4
f 95/24/1 94/44/1 103/44/1 104/24/1
f 94/44/3 95/24/3 96/12/3 93/11/3
f 83/4/6 84/3/6 91/27/6 90/36/6
f 90/36/6 91/27/6 92/32/6 89/31/6
f 100/11/3 99/12/3 98/13/3 97/14/3
f 81/43/4 93/42/4 100/42/4 97/43/4
f 93/11/2 96/12/2 99/12/2 100/11/2
f 82/18/1 81/57/1 97/57/1 98/18/1
f 102/10/3 101/9/3 104/24/3 103/44/3
f 85/10/2 86/9/2 101/9/2 102/10/2
f 86/9/5 95/39/5 104/39/5 101/9/5
f 94/16/4 85/10/4 102/10/4 103/16/4
f 90/33/4 89/35/4 119/63/4 117/48/4
f 117/48/4 119/63/4 120/61/4 118/41/4
f 83/34/4 90/33/4 117/48/4 105/49/4
f 105/49/4 117/48/4 118/41/4 106/40/4
f 92/50/5 91/51/5 115/64/5 113/53/5
f 115/64/1 116/62/1 124/62/1 123/64/1
f 88/5/5 92/50/5 113/53/5 111/65/5
f 111/65/5 113/53/5 114/38/5 112/60/5
f 91/51/5 84/54/5 108/66/5 115/64/5
f 115/64/5 108/66/5 107/21/5 116/62/5
f 89/35/4 87/6/4 110/67/4 119/63/4
f 119/63/4 110/67/4 109/59/4 120/61/4
f 87/6/2 88/5/2 111/65/2 110/67/2
f 110/67/2 111/65/2 112/60/2 109/59/2
f 81/57/1 82/18/1 107/19/1 106/58/1
f 106/58/1 107/19/1 108/2/1 105/1/1
f 121/53/5 123/64/5 124/62/5 122/38/5
f 114/38/2 113/53/2 121/53/2 122/38/2
f 113/53/6 115/64/6 123/64/6 121/53/6
f 116/62/3 114/38/3 122/38/3 124/62/3
f 149/1/2 127/4/2 128/3/2 152/2/2
f 133/31/6 131/6/6 132/5/6 136/32/6
f 153/59/1 129/10/1 130/9/1 156/60/1
f 140/23/5 143/23/5 142/22/5 126/22/5
f 164/61/4 138/16/4 129/10/4 153/59/4
f 160/62/5 140/23/5 126/22/5 151/21/5
f 156/60/5 130/9/5 139/39/5 158/38/5
f 158/38/5 139/39/5 140/23/5 160/62/5
f 150/40/4 125/43/4 137/42/4 162/41/4
f 162/41/4 137/42/4 138/16/4 164/61/4
f 139/24/2 148/24/2 147/44/2 138/44/2
f 138/44/3 137/11/3 140/12/3 139/24/3
f 127/4/6 134/36/6 135/27/6 128/3/6
f 134/36/6 133/31/6 136/32/6 135/27/6
f 144/11/3 141/14/3 142/13/3 143/12/3
f 125/43/4 141/43/4 144/42/4 137/42/4
f 137/11/1 144/11/1 143/12/1 140/12/1
f 126/18/2 142/18/2 141/57/2 125/57/2
f 146/10/3 147/44/3 148/24/3 145/9/3
f 129/10/1 146/10/1 145/9/1 130/9/1
f 130/9/5 145/9/5 148/39/5 139/39/5
f 138/16/4 147/16/4 146/10/4 129/10/4
f 134/33/4 161/48/4 163/63/4 133/35/4
f 161/48/4 162/41/4 164/61/4 163/63/4
f 127/34/4 149/49/4 161/48/4 134/33/4
f 149/49/4 150/40/4 162/41/4 161/48/4
f 136/50/5 157/53/5 159/64/5 135/51/5
f 159/64/2 167/64/2 168/62/2 160/62/2
f 132/5/5 155/65/5 157/53/5 136/50/5
f 155/65/5 156/60/5 158/38/5 157/53/5
f 135/51/5 159/64/5 152/66/5 128/54/5
f 159/64/5 160/62/5 151/21/5 152/66/5
f 133/35/4 163/63/4 154/67/4 131/6/4
f 163/63/4 164/61/4 153/59/4 154/67/4
f 131/6/1 154/67/1 155/65/1 132/5/1
f 154/67/1 153/59/1 156/60/1 155/65/1
f 125/57/2 150/58/2 151/19/2 126/18/2
f 150/58/2 149/1/2 152/2/2 151/19/2
f 165/53/5 166/38/5 168/62/5 167/64/5
f 158/38/1 166/38/1 165/53/1 157/53/1
f 157/53/6 165/53/6 167/64/6 159/64/6
f 160/62/3 168/62/3 166/38/3 158/38/3
f 177/68/1 178/69/1 172/3/1 171/4/1
f 171/4/6 172/3/6 176/5/6 175/6/6
f 179/70/2 180/71/2 174/9/2 173/10/2
f 173/10/3 174/9/3 170/13/3 169/14/3
f 177/72/4 179/70/4 173/10/4 169/43/4
f 180/71/5 178/73/5 170/22/5 174/9/5
f 176/5/5 172/54/5 178/73/5 180/71/5
f 175/6/2 176/5/2 180/71/2 179/70/2
f 169/57/1 170/18/1 178/69/1 177/68/1
f 171/4/4 175/6/4 179/70/4 177/68/4
usemtl Black
f 186/45/1 185/17/1 187/17/1 188/45/1
f 182/46/2 181/28/2 183/28/2 184/46/2
usemtl Red
f 192/70/3 191/72/3 196/72/3 195/70/3
f 194/34/4 193/6/4 195/70/4 196/72/4
f 189/4/6 190/6/6 193/6/6 194/4/6
f 190/6/2 192/70/2 195/70/2 193/6/2
f 191/68/1 189/4/1 194/4/1 196/68/1
f 189/4/5 191/68/5 192/70/5 190/6/5
f 200/70/3 199/72/3 204/72/3 203/70/3
f 202/34/4 201/6/4 203/70/4 204/72/4
f 197/4/6 198/6/6 201/6/6 202/4/6
f 198/6/2 200/70/2 203/70/2 201/6/2
f 199/68/1 197/4/1 202/4/1 204/68/1
f 197/4/5 199/68/5 200/70/5 198/6/5
usemtl White
f 208/70/3 207/72/3 212/72/3 211/70/3
f 210/34/4 209/6/4 211/70/4 212/72/4
f 205/4/6 206/6/6 209/6/6 210/4/6
f 206/6/2 208/70/2 211/70/2 209/6/2
f 207/68/1 205/4/1 210/4/1 212/68/1
f 205/4/5 207/68/5 208/70/5 206/6/5
f 216/70/3 215/72/3 220/72/3 219/70/3
f 218/34/4 217/6/4 219/70/4 220/72/4
f 213/4/6 214/6/6 217/6/6 218/4/6
f 214/6/2 216/70/2 219/70/2 217/6/2
f 215/68/1 213/4/1 218/4/1 220/68/1
f 213/4/5 215/68/5 216/70/5 214/6/5
